#!OML:ASF X:\für Bonn\!DataBase\2005_08_10_Bjorn_Final\c3d\bjorn.ASF
:FULLY-SPECIFIED
:DEGREES
264
root -0.210451 21.1306 6.27527 -178.557 48.2492 182.24
lowerback -7.96173 8.33209 1.11781
upperback 0.453548 11.3773 -4.49878
thorax 6.0388 5.77714 -3.7365
lowerneck 3.56322 2.0668 10.464
upperneck 10.8214 3.93413 -5.56428
head 2.94686 2.41925 -3.32153
rclavicle 1.8641e-013 -1.90833e-014
rhumerus 75.1698 14.133 -80.4207
rradius 52.8492
rwrist 35.8163
rhand -58.7854 14.8429
rfingers 7.12502
rthumb -30.9948 -12.5595
lclavicle 1.8641e-013 -1.90833e-014
lhumerus 49.7451 -13.3895 88.528
lradius 66.2488
lwrist 59.0293
lhand -52.0174 -5.22009
lfingers 7.12502
lthumb -24.5242 23.2295
rfemur 540.499 -180.721 -532.979
rtibia 31.7059
rfoot -1.16578 15.6514
rtoes -29.9688
lfemur 345.174 0.890762 353.476
ltibia 32.8704
lfoot -1.32044 1.71153
ltoes -30.5271
265
root -0.213701 20.9478 6.21619 -178.909 48.0359 182.004
lowerback -7.69977 8.27877 0.980792
upperback 0.589127 11.3261 -4.51222
thorax 6.0072 5.75222 -3.71447
lowerneck 3.80019 2.06757 10.4769
upperneck 10.2441 3.91183 -5.58313
head 2.735 2.38823 -3.33528
rclavicle 5.24295e-015 4.29375e-014
rhumerus 75.2653 14.0769 -80.0961
rradius 53.0137
rwrist 35.3401
rhand -58.4705 14.6514
rfingers 7.12502
rthumb -30.6946 -12.8078
lclavicle 5.24295e-015 4.29375e-014
lhumerus 49.6232 -13.3975 88.3806
lradius 66.6644
lwrist 59.0934
lhand -52.3195 -5.13488
lfingers 7.12502
lthumb -24.8137 23.2752
rfemur 540.742 -180.642 -533.303
rtibia 31.4353
rfoot -1.91709 16.2035
rtoes -30.6468
lfemur 344.806 0.594164 353.315
ltibia 33.573
lfoot -1.58554 2.05242
ltoes -31.6591
266
root -0.21774 20.7579 6.1573 -179.5 47.8365 181.52
lowerback -7.36759 8.22138 0.692608
upperback 0.737644 11.2877 -4.55879
thorax 5.9286 5.73166 -3.65429
lowerneck 4.12336 2.06287 10.4605
upperneck 9.33784 3.84372 -5.31151
head 2.66379 2.35195 -3.59267
rclavicle -3.96575e-014 7.95139e-014
rhumerus 75.4194 13.9696 -79.7105
rradius 53.0653
rwrist 34.8077
rhand -57.9896 14.29
rfingers 7.12502
rthumb -30.2359 -13.2543
lclavicle -3.96575e-014 7.95139e-014
lhumerus 49.4767 -13.4011 88.2694
lradius 67.1053
lwrist 59.1211
lhand -52.7424 -4.93377
lfingers 7.12502
lthumb -25.219 23.4198
rfemur 541.055 -180.674 -533.83
rtibia 31.1133
rfoot -2.25457 16.7992
rtoes -31.2878
lfemur 344.49 0.159838 352.965
ltibia 34.3719
lfoot -1.91777 2.45416
ltoes -32.65
267
root -0.224019 20.5604 6.0963 -179.836 47.5988 181.34
lowerback -7.01836 8.16503 0.637505
upperback 0.869795 11.2196 -4.55045
thorax 5.85423 5.70076 -3.668
lowerneck 4.37309 2.05492 10.4325
upperneck 8.82849 3.81998 -5.32247
head 2.44203 2.32055 -3.59336
rclavicle -1.58034e-014 2.70347e-014
rhumerus 75.6242 13.8612 -79.337
rradius 52.9838
rwrist 34.2693
rhand -57.2355 13.7177
rfingers 7.12502
rthumb -29.5164 -13.956
lclavicle -1.58034e-014 2.70347e-014
lhumerus 49.348 -13.3985 88.1632
lradius 67.5437
lwrist 59.2025
lhand -53.391 -4.54874
lfingers 7.12502
lthumb -25.8402 23.7159
rfemur 541.366 -180.885 -534.113
rtibia 30.7213
rfoot -2.07709 17.3374
rtoes -31.7615
lfemur 344.063 -0.0994041 352.844
ltibia 35.3255
lfoot -2.08911 2.55964
ltoes -33.3173
268
root -0.231543 20.3522 6.03366 -179.868 47.3429 181.454
lowerback -6.70514 8.11925 0.819819
upperback 0.950306 11.138 -4.51293
thorax 5.78372 5.66787 -3.77668
lowerneck 4.42057 2.05611 10.4158
upperneck 8.66486 3.81214 -5.31869
head 2.37665 2.30938 -3.58924
rclavicle 1.00486e-013 3.02153e-014
rhumerus 75.8441 13.7325 -78.8888
rradius 52.837
rwrist 33.5074
rhand -56.0085 13.081
rfingers 7.12502
rthumb -28.3443 -14.7937
lclavicle 1.00486e-013 3.02153e-014
lhumerus 49.2426 -13.4156 88.0792
lradius 67.9604
lwrist 59.252
lhand -54.2388 -3.75391
lfingers 7.12502
lthumb -26.6519 24.3899
rfemur 541.615 -181.113 -534.187
rtibia 30.2783
rfoot -1.68138 17.9583
rtoes -32.1711
lfemur 343.481 -0.271558 352.935
ltibia 36.4416
lfoot -2.08416 2.46473
ltoes -33.1191
269
root -0.241262 20.1196 5.97247 -179.849 47.0678 181.588
lowerback -6.45034 8.06919 1.03135
upperback 1.04664 11.051 -4.47473
thorax 5.76731 5.63299 -3.89065
lowerneck 4.32038 2.06803 10.4506
upperneck 8.67683 3.81707 -5.34758
head 2.4014 2.30996 -3.60518
rclavicle -4.39314e-014 -3.18055e-015
rhumerus 76.0924 13.605 -78.4555
rradius 52.6706
rwrist 32.757
rhand -54.3609 11.9423
rfingers 7.12502
rthumb -26.7687 -16.1837
lclavicle -4.39314e-014 -3.18055e-015
lhumerus 49.2751 -13.4149 88.0038
lradius 68.1997
lwrist 59.4482
lhand -54.9569 -2.95491
lfingers 7.12502
lthumb -27.3389 25.0825
rfemur 541.835 -181.346 -534.242
rtibia 29.8477
rfoot -1.24886 18.7056
rtoes -32.1696
lfemur 342.762 -0.389042 353.042
ltibia 37.722
lfoot -2.06556 2.20001
ltoes -32.3589
270
root -0.254119 19.8707 5.91274 -179.837 46.7799 181.683
lowerback -6.18931 8.02111 1.24929
upperback 1.13728 10.9688 -4.452
thorax 5.74569 5.60158 -4.02436
lowerneck 4.09852 2.09555 10.4503
upperneck 8.8156 3.83369 -5.3363
head 2.4902 2.31862 -3.59865
rclavicle -1.05207e-013 1.74931e-014
rhumerus 76.2562 13.4761 -78.0902
rradius 52.5627
rwrist 32.0292
rhand -52.2298 10.6507
rfingers 7.12502
rthumb -24.7277 -17.7712
lclavicle -1.05207e-013 1.74931e-014
lhumerus 49.3308 -13.4378 87.9751
lradius 68.3905
lwrist 59.644
lhand -55.733 -1.74541
lfingers 7.12502
lthumb -28.081 26.1727
rfemur 542.036 -181.593 -534.333
rtibia 29.5044
rfoot -0.88336 19.541
rtoes -31.5029
lfemur 341.957 -0.551893 353.119
ltibia 39.1346
lfoot -2.28575 1.85364
ltoes -31.0413
271
root -0.267969 19.6158 5.85463 -179.985 46.4506 181.585
lowerback -5.91155 7.9633 1.33568
upperback 1.25252 10.8907 -4.45947
thorax 5.72182 5.57046 -4.11941
lowerneck 3.93553 2.11243 10.4401
upperneck 8.84921 3.83331 -5.30868
head 2.53035 2.31537 -3.58517
rclavicle -9.77027e-014 -1.43125e-014
rhumerus 76.3589 13.3253 -77.7742
rradius 52.4971
rwrist 31.3868
rhand -49.4356 9.04593
rfingers 7.12502
rthumb -22.0473 -19.7173
lclavicle -9.77027e-014 -1.43125e-014
lhumerus 49.4378 -13.5156 87.9206
lradius 68.5008
lwrist 59.7975
lhand -56.5394 -0.255325
lfingers 7.12502
lthumb -28.8516 27.5339
rfemur 542.281 -181.841 -534.568
rtibia 29.3205
rfoot -0.972995 20.501
rtoes -30.6251
lfemur 341.126 -0.773792 353.026
ltibia 40.6535
lfoot -2.94876 1.42786
ltoes -30.215
272
root -0.283417 19.3525 5.79892 -180.322 46.1177 181.304
lowerback -5.54803 7.89524 1.31751
upperback 1.37078 10.8127 -4.50982
thorax 5.64159 5.53913 -4.21503
lowerneck 3.89391 2.12508 10.4177
upperneck 8.78973 3.8342 -5.2464
head 2.5153 2.31217 -3.55806
rclavicle 2.20154e-014 2.54444e-014
rhumerus 76.4916 13.1694 -77.4655
rradius 52.3837
rwrist 30.6438
rhand -45.7877 7.16855
rfingers 7.12502
rthumb -18.5415 -21.9678
lclavicle 2.20154e-014 2.54444e-014
lhumerus 49.4193 -13.6188 87.8585
lradius 68.6558
lwrist 59.9032
lhand -57.2708 1.35132
lfingers 7.12502
lthumb -29.55 29.0191
rfemur 542.556 -182.215 -534.938
rtibia 29.4267
rfoot -1.71107 21.7108
rtoes -29.9439
lfemur 340.351 -1.0679 352.78
ltibia 42.213
lfoot -4.10134 1.00487
ltoes -29.5925
273
root -0.298696 19.0864 5.74528 -180.864 45.7748 180.811
lowerback -5.17014 7.81551 1.12359
upperback 1.55059 10.7375 -4.56687
thorax 5.58685 5.50574 -4.22098
lowerneck 3.86132 2.14884 10.2929
upperneck 8.62148 3.83641 -5.14639
head 2.45751 2.30178 -3.49763
rclavicle 2.68359e-015 8.26944e-014
rhumerus 76.7879 12.9571 -76.9836
rradius 52.189
rwrist 29.6829
rhand -41.2854 5.1755
rfingers 7.12502
rthumb -14.2067 -24.3187
lclavicle 2.68359e-015 8.26944e-014
lhumerus 49.3654 -13.7229 87.8144
lradius 68.8996
lwrist 60.0205
lhand -58.0853 3.30045
lfingers 7.12502
lthumb -30.3272 30.828
rfemur 542.856 -182.718 -535.476
rtibia 29.8566
rfoot -3.22561 23.1678
rtoes -29.9903
lfemur 339.619 -1.41704 352.341
ltibia 43.8405
lfoot -5.61374 0.694997
ltoes -29.0435
274
root -0.312742 18.8339 5.69039 -181.547 45.436 180.148
lowerback -4.79826 7.74287 0.813028
upperback 1.73951 10.686 -4.66694
thorax 5.53461 5.48313 -4.20421
lowerneck 3.91496 2.1579 10.1903
upperneck 8.34399 3.82174 -5.0345
head 2.3462 2.28135 -3.43862
rclavicle -1.35024e-013 -6.36111e-015
rhumerus 77.1749 12.6785 -76.4804
rradius 51.8653
rwrist 28.6967
rhand -36.2234 3.24508
rfingers 7.12502
rthumb -9.32539 -26.5287
lclavicle -1.35024e-013 -6.36111e-015
lhumerus 49.2934 -13.8472 87.7889
lradius 69.1346
lwrist 60.2152
lhand -58.9341 5.63537
lfingers 7.12502
lthumb -31.1365 33.0107
rfemur 543.139 -183.435 -536.134
rtibia 30.6155
rfoot -5.66802 24.5892
rtoes -30.0267
lfemur 338.925 -1.80126 351.73
ltibia 45.5557
lfoot -7.54947 0.556727
ltoes -28.1562
275
root -0.327463 18.576 5.63753 -182.372 45.089 179.313
lowerback -4.43332 7.67855 0.379063
upperback 1.96237 10.6608 -4.8013
thorax 5.50909 5.47266 -4.15018
lowerneck 3.91673 2.1592 10.1116
upperneck 8.08308 3.79192 -4.92218
head 2.24988 2.25362 -3.38406
rclavicle -8.33902e-014 1.74931e-014
rhumerus 77.6862 12.3117 -75.8374
rradius 51.4381
rwrist 27.5364
rhand -30.9435 1.50713
rfingers 7.12502
rthumb -4.22853 -28.4306
lclavicle -8.33902e-014 1.74931e-014
lhumerus 49.3123 -14.0289 87.7475
lradius 69.2567
lwrist 60.3767
lhand -59.7814 8.28917
lfingers 7.12502
lthumb -31.9437 35.5064
rfemur 543.379 -184.154 -536.948
rtibia 31.6656
rfoot -8.01013 26.0469
rtoes -27.4445
lfemur 338.196 -2.17572 350.961
ltibia 47.4546
lfoot -9.85987 0.496924
ltoes -27.0658
276
root -0.343307 18.3144 5.58724 -183.26 44.7328 178.402
lowerback -4.05448 7.61758 -0.109992
upperback 2.20365 10.6461 -4.94827
thorax 5.48902 5.46728 -4.07925
lowerneck 3.94912 2.16111 9.96568
upperneck 7.7584 3.75885 -4.76844
head 2.12372 2.221 -3.30261
rclavicle -1.72943e-014 -3.18055e-014
rhumerus 78.2448 11.9156 -75.1087
rradius 50.9551
rwrist 26.3025
rhand -25.7661 0.0470622
rfingers 7.12502
rthumb 0.771632 -29.9313
lclavicle -1.72943e-014 -3.18055e-014
lhumerus 49.4018 -14.2354 87.6967
lradius 69.2157
lwrist 60.5334
lhand -60.4442 10.7132
lfingers 7.12502
lthumb -32.5746 37.8022
rfemur 543.563 -184.811 -537.826
rtibia 32.9795
rfoot -10.3505 27.4827
rtoes -23.6042
lfemur 337.429 -2.5048 350.101
ltibia 49.5666
lfoot -12.4789 0.38279
ltoes -25.803
277
root -0.361326 18.0551 5.53844 -184.244 44.3459 177.365
lowerback -3.66452 7.55707 -0.659246
upperback 2.44967 10.6418 -5.13988
thorax 5.46728 5.46836 -4.02247
lowerneck 4.00042 2.15627 9.80364
upperneck 7.44868 3.71993 -4.57954
head 1.99807 2.18717 -3.20654
rclavicle -5.45664e-014 -5.725e-014
rhumerus 78.838 11.4733 -74.3204
rradius 50.3756
rwrist 24.995
rhand -20.9976 -1.10668
rfingers 7.12502
rthumb 5.37665 -31.0185
lclavicle -5.45664e-014 -5.725e-014
lhumerus 49.4701 -14.4659 87.6419
lradius 69.0875
lwrist 60.6976
lhand -60.9104 12.9147
lfingers 7.12502
lthumb -33.0181 39.9111
rfemur 543.706 -185.333 -538.825
rtibia 34.4584
rfoot -12.8665 28.763
rtoes -20.0956
lfemur 336.576 -2.77724 349.08
ltibia 51.9265
lfoot -15.2293 0.340106
ltoes -25.457
278
root -0.380415 17.8031 5.49026 -185.241 43.9243 176.291
lowerback -3.32993 7.47703 -1.23651
upperback 2.73976 10.6201 -5.33678
thorax 5.51917 5.46103 -3.947
lowerneck 3.97779 2.16882 9.64674
upperneck 7.15641 3.69811 -4.42019
head 1.89466 2.16049 -3.12128
rclavicle -1.21259e-014 7.15625e-014
rhumerus 79.4402 11.0575 -73.4747
rradius 49.8174
rwrist 23.6645
rhand -16.2788 -2.2011
rfingers 7.12502
rthumb 9.93116 -31.9468
lclavicle -1.21259e-014 7.15625e-014
lhumerus 49.7791 -14.6379 87.5319
lradius 68.6038
lwrist 60.9847
lhand -61.1947 14.6815
lfingers 7.12502
lthumb -33.2885 41.6204
rfemur 543.778 -185.713 -539.865
rtibia 36.0825
rfoot -15.5986 29.7625
rtoes -17.6414
lfemur 335.617 -2.97639 347.97
ltibia 54.47
lfoot -17.8482 0.534034
ltoes -26.2833
